<?xml version="1.0" encoding="UTF-8"?>
<svg version="1.1" viewBox="0 0 512 512" xmlns="http://www.w3.org/2000/svg" xmlns:xlink="http://www.w3.org/1999/xlink">
 <defs>
  <linearGradient id="aa">
   <stop stop-color="#fff" offset="0"/>
   <stop stop-color="#fff" stop-opacity="0" offset="1"/>
  </linearGradient>
  <linearGradient id="z">
   <stop offset="0"/>
   <stop stop-opacity=".49804" offset=".5"/>
   <stop offset="1"/>
  </linearGradient>
  <linearGradient id="a">
   <stop stop-color="#fff" offset="0"/>
   <stop stop-color="#7f7f7f" offset=".26389"/>
   <stop offset="1"/>
  </linearGradient>
  <linearGradient id="ao" x1="501.37" x2="248.06" y1="-103.19" y2="330.15" gradientUnits="userSpaceOnUse" spreadMethod="reflect" xlink:href="#a"/>
  <linearGradient id="ap" x1="515.73" x2="144.23" y1="55.558" y2="293.34" gradientUnits="userSpaceOnUse" xlink:href="#a"/>
  <linearGradient id="aq" x1="294.82" x2="868.77" y1="375.37" y2="375.37" gradientTransform="translate(-367.41 -19.502)" gradientUnits="userSpaceOnUse" xlink:href="#z"/>
  <radialGradient id="av" cx="582.12" cy="435.03" r="147.51" gradientTransform="matrix(0 1.6529 -2.0379 0 1110.2 -967.9)" gradientUnits="userSpaceOnUse" xlink:href="#a"/>
  <linearGradient id="ar" x1="380.88" x2="285.04" y1="279.35" y2="19.466" gradientUnits="userSpaceOnUse" xlink:href="#a"/>
  <radialGradient id="aw" cx="89.092" cy="139.92" r="60.375" gradientTransform="matrix(2.9809 0 0 2.9517 -20.782 -267.87)" gradientUnits="userSpaceOnUse" xlink:href="#aa"/>
  <linearGradient id="as" x1="449.42" x2="461.13" y1="318.2" y2="311.44" gradientUnits="userSpaceOnUse" xlink:href="#z"/>
  <radialGradient id="at" cx="459.93" cy="323.18" r="7.9415" gradientTransform="matrix(1.8868 .50556 -.43047 1.6065 -268.6 -424.22)" gradientUnits="userSpaceOnUse" xlink:href="#aa"/>
  <linearGradient id="al" x1="449.42" x2="461.13" y1="318.2" y2="311.44" gradientTransform="matrix(.45493 0 0 .45493 248.42 186.96)" gradientUnits="userSpaceOnUse" xlink:href="#z"/>
  <radialGradient id="au" cx="459.93" cy="323.18" r="7.9415" gradientTransform="matrix(.85836 .23 -.19584 .73087 126.23 -6.0327)" gradientUnits="userSpaceOnUse" xlink:href="#aa"/>
  <linearGradient id="am" x1="49.063" x2="15.07" y1="550.03" y2="50.828" gradientUnits="userSpaceOnUse" xlink:href="#a"/>
  <linearGradient id="an" x1="21.047" x2="9.0976" y1="478.95" y2="52.867" gradientUnits="userSpaceOnUse" xlink:href="#a"/>
  <filter id="ab" x="-.016903" y="-.04137" width="1.0338" height="1.0827" color-interpolation-filters="sRGB">
   <feGaussianBlur stdDeviation="2.4929687"/>
  </filter>
  <filter id="ac" x="-.0089999" y="-.080347" width="1.018" height="1.1607" color-interpolation-filters="sRGB">
   <feGaussianBlur stdDeviation="0.51312085"/>
  </filter>
  <filter id="ad" x="-.034485" y="-.040508" width="1.069" height="1.081" color-interpolation-filters="sRGB">
   <feGaussianBlur stdDeviation="0.51312085"/>
  </filter>
  <filter id="ae" x="-.47717" y="-.38562" width="1.9543" height="1.7712" color-interpolation-filters="sRGB">
   <feGaussianBlur stdDeviation="0.51312085"/>
  </filter>
  <filter id="af" x="-.023815" y="-.0080208" width="1.0476" height="1.016" color-interpolation-filters="sRGB">
   <feGaussianBlur stdDeviation="0.020405225"/>
  </filter>
  <filter id="ag" x="-.006721" y="-.05593" width="1.0134" height="1.1119" color-interpolation-filters="sRGB">
   <feGaussianBlur stdDeviation="0.4477935"/>
  </filter>
  <filter id="ah" x="-.019224" y="-.031934" width="1.0384" height="1.0639" color-interpolation-filters="sRGB">
   <feGaussianBlur stdDeviation="0.3885231"/>
  </filter>
  <filter id="ai" x="-.11076" y="-.17109" width="1.2215" height="1.3422" color-interpolation-filters="sRGB">
   <feGaussianBlur stdDeviation="0.24950262"/>
  </filter>
  <filter id="aj" x="-.24943" y="-.012348" width="1.4989" height="1.0247" color-interpolation-filters="sRGB">
   <feGaussianBlur stdDeviation="0.24950262"/>
  </filter>
  <filter id="ak" x="-.013976" y="-.011605" width="1.028" height="1.0232" color-interpolation-filters="sRGB">
   <feGaussianBlur stdDeviation="0.24950262"/>
  </filter>
 </defs>
 <g transform="matrix(.97816 0 0 .97816 -6.23 5.5916)">
  <path d="m401.89 349.9 9.6372-0.86217 95.168-9.4457 0.26793-0.24076 20.112-238.18-0.22923-0.36778-136.12-2.9691 0.0519 247.14z" fill="url(#ao)"/>
  <path d="m331.22 96.531-6.4718 0.02766 193.85 4.2917 8.2372-0.0523z" fill="#010101"/>
  <path d="m324.29 96.561 193.73 4.2934 0.58494-4e-3 -193.85-4.2917z" fill="#010101"/>
  <path d="m324.29 96.561-70.593 0.3022 173.49 4.5666 90.833-0.57539z" fill="#7a7a7a"/>
  <path d="m246.11 97.178-4.9688 181.41 160.75 71.312 15.406-248.03z" fill="url(#ap)"/>
  <path d="m253.22 96.865 173.34 4.5685 0.62864-4e-3 -173.49-4.5666z" fill="#020202"/>
  <path d="m253.22 96.865-6.8542 0.02938 171.28 4.5956 8.9165-0.0564z" fill="#1a1a1a"/>
  <path d="m417.64 101.49-171.28-4.5956-0.25067 0.27356 171.19 4.7019z" fill="#4d4d4d"/>
  <path d="m511.42 183.77-89.5 3.5312-5.2812 81.906 88.25-6.2812 6.5312-79.156zm-6.5938 79.844-88.219 6.2812-5.0938 79.125 87-8.8125 6.3125-76.594z" fill="#b9b9b9"/>
  <path d="m504.84 263.64-88.233 6.2593-0.0452 0.70269 88.222-6.2823z" fill="#fff"/>
  <path d="m511.67 183.77-89.547 3.5241-0.2503 0.32607 89.518-3.5338z" fill="#fff"/>
  <path d="m511.99 183.15-89.577 3.5143-0.25055 0.32644 89.547-3.5241z" fill="#434343"/>
  <path d="m514.18 156.62-90.006 2.5786-1.7658 27.462 89.577-3.5143z" fill="#b9b9b9"/>
  <path d="m513.93 156.64-89.988 2.564 0.2055 0.39547 90.006-2.5786z" fill="#fff"/>
  <path d="m514.24 155.91-90.018 2.5532-0.25287 0.34088 89.988-2.564z" fill="#464646"/>
  <path d="m516.46 129.09-90.451 1.5957-1.7865 27.784 90.018-2.5532z" fill="#b9b9b9"/>
  <path d="m516.01 128.34-90.414 1.5677 0.2071 0.3891 90.433-1.5818z" fill="#525252"/>
  <path d="m516.21 129.11-90.433 1.5818 0.20722 0.38923 90.451-1.5957z" fill="#ececec"/>
  <path d="m518.25 101.22-90.851 0.58898-1.8037 28.091 90.414-1.5677z" fill="#b9b9b9"/>
  <path d="m427.4 101.81 90.851-0.58898-0.22742-0.36915-90.833 0.57539z" fill="#4f4f4f"/>
  <path d="m58.538 408.44 0.07647 6.9023 35.113 45.332 1.9986 0.40657 406.43-52.002 0.19808-0.59887 0.54793-6.7742-73.638-34.199-368.46 40.074-1.2643 0.24909z" fill="#333"/>
  <path d="m206.61 316.93-0.73869 2.253c46.255 15.19 135.63 30.402 179.59 56.519l1.2188-2.0314c-44.2-26.262-133.77-41.537-180.07-56.74z" color="#000000" fill="#999" style="block-progression:tb;text-indent:0;text-transform:none"/>
  <path d="m206.32 316.97-0.35143 1.1182c46.37 15.176 135.68 30.43 179.8 56.643l0.60701-1.0223c-44.2-26.262-133.76-41.536-180.06-56.739z" color="#000000" fill="#ffe6d5" style="block-progression:tb;text-indent:0;text-transform:none"/>
  <path d="m367.53 411.45 13.452-1.6492 0.15814-2.8363-13.459 1.6364z" fill="#8a8a8a"/>
  <path d="m367.24 409.21-0.15093 2.8539 0.44688-0.61719 0.15093-2.8492z" fill="#2a2a2a"/>
  <path d="m434.36 373.48-1.4128 1.179 1.873 0.25222z" fill="#5a5a5a"/>
  <path d="m434.65 377.49 0.17161-2.5828-1.873-0.25222-0.17043 2.5808z" fill="#a5a5a5"/>
  <path d="m434.36 373.49-50.674 5.651-9.1228 1.108 2.3638 1.145 0.40628-0.51708 55.623-6.205 1.4035-1.1819z" fill="#6b6b6b"/>
  <path d="m377.2 383.51 55.577-6.2761 0.17043-2.5808-55.604 6.2266z" fill="#898989"/>
  <path d="m502.9 401.7-72.87-33.886-0.77946-0.32384 72.55 33.741z" fill="#0e0e0e"/>
  <path d="m366.13 377.32 0.0298-0.57003-0.30423-0.87922-1.556 1.193z" fill="#5b5b5b"/>
  <path d="m364.3 377.07-0.13509 2.6 1.8294 0.25837 0.13615-2.6021z" fill="#a2a2a2"/>
  <path d="m434.65 377.49 54.526 25.998 0.21771-2.7872-54.572-25.794z" fill="#6c6c6c"/>
  <path d="m434.82 374.91 54.572 25.794 3.0747 0.12977-58.107-27.355z" fill="#606060"/>
  <path d="m365.99 379.92 4.9797 2.679 0.14005-2.6231-4.9836-2.658z" fill="#616161"/>
  <path d="m365.85 375.89 0.29547 0.84949v0.59096l4.5799 2.4377 0.99723 0.66482 2.9917 0.14774-0.99723-0.51708-7.867-4.1736z" fill="#3c3c3c"/>
  <path d="m371.11 379.98-0.40326 0.51295 3.0166-0.44002z" fill="#353535"/>
  <path d="m376.94 381.4-0.14384 2.6345 0.39972-0.52063 0.14384-2.6303z" fill="#2a2a2a"/>
  <path d="m374.28 381.67 0.42998-1.0936-2.9913-0.13604 0.69803 0.96597z" fill="#747474"/>
  <path d="m372.42 381.41-0.14147 2.6346 1.8622 0.26569 0.14254-2.6366z" fill="#a2a2a2"/>
  <path d="m365.85 375.87-46.938 5.1499 2.9487 0.71434 42.434-4.6712z" fill="#6e6e6e"/>
  <path d="m321.75 384.37 42.413-4.7084 0.13509-2.6-42.434 4.6712z" fill="#8e8e8e"/>
  <path d="m329.38 388.89 42.898-4.8439 0.14147-2.6346-42.92 4.8058z" fill="#8d8d8d"/>
  <path d="m374.14 384.31 18.402 9.8999 0.15731-2.7145-18.417-9.822z" fill="#636363"/>
  <path d="m395.46 391.6-20.747-11.018-0.42998 1.0936 18.417 9.822z" fill="#5d5d5d"/>
  <path d="m321.38 382.26-0.11406 2.6412 0.48778-0.52299 0.11405-2.6371z" fill="#323232"/>
  <path d="m321.38 382.26 0.48777-0.51886-2.9487-0.71434z" fill="#444"/>
  <path d="m318.56 381.06-1.6752 1.2235 1.8213 0.2651z" fill="#5c5c5c"/>
  <path d="m318.59 385.19 0.11264-2.6436-1.8213-0.2651-0.11145 2.6414z" fill="#a0a0a0"/>
  <path d="m327.07 388.12-4.6738-2.769-1.1299-0.44925 4.6664 2.7665z" fill="#181818"/>
  <path d="m326.05 385-4.6698-2.7446-2.461-1.2332 5.9917 3.524z" fill="#181818"/>
  <path d="m324.55 384.59-5.9885-3.5249 0.14609 1.4886 4.6508 2.7498z" fill="#5a5a5a"/>
  <path d="m318.59 385.19 4.6472 2.7717 0.11618-2.6654-4.6508-2.7498z" fill="#5a5a5a"/>
  <path d="m502.35 408.48 0.54793-6.7742-0.19737 0.58776-0.54864 6.7853z" fill="#171717"/>
  <path d="m492.47 400.83-3.0747-0.12977-0.22669 0.5815z" fill="#3a3a3a"/>
  <path d="m324.74 385.52 2.6933-0.30044-2.527-0.66943-0.3567 0.0397z" fill="#3e3e3e"/>
  <path d="m324.55 384.59-1.1916 0.71352-0.49096 0.53079 1.873-0.31415z" fill="#373737"/>
  <path d="m329.38 388.89 0.11996-2.6726-0.48198 0.53387-0.11985 2.6769z" fill="#303030"/>
  <path d="m326.51 385.49 2.5117 1.2599 0.48198-0.53387z" fill="#444"/>
  <path d="m395.46 391.6-2.7606-0.10235-0.38116 0.55195z" fill="#373737"/>
  <path d="m326.37 385.53-1.6888 1.2506 1.8494 0.27338z" fill="#5c5c5c"/>
  <path d="m326.42 389.73 0.11866-2.6792-1.8494-0.27338-0.11748 2.6771z" fill="#a0a0a0"/>
  <path d="m318.56 381.06-64.136 7.0367 2.9948 0.73302 59.466-6.5462z" fill="#727272"/>
  <path d="m257.34 391.52 59.435-6.5981 0.11145-2.6414-59.466 6.5462z" fill="#929292"/>
  <path d="m427.1 408.25-50.156-26.853-2.3781-1.1356 51.39 27.526z" fill="#141414"/>
  <path d="m326.51 385.49 19.344 11.377 0.43955 0.0343-17.272-10.151z" fill="#181818"/>
  <path d="m256.81 389.37-0.0807 2.6977 0.60892-0.5471 0.0808-2.6933z" fill="#3b3b3b"/>
  <path d="m254.43 388.1 2.3858 1.2758 0.60903-0.54273z" fill="#484848"/>
  <path d="m388.61 397.91-1.6216 1.3249 1.9835 0.29465z" fill="#5e5e5e"/>
  <path d="m388.81 402.3 0.15909-2.7778-1.9835-0.29465-0.15791 2.7755z" fill="#a2a2a2"/>
  <path d="m262.12 395.43-4.2004-2.8976-1.1905-0.45562 4.192 2.8951z" fill="#1e1e1e"/>
  <path d="m248.61 388.74-1.8574 1.2692 1.8052 0.27834z" fill="#5d5d5d"/>
  <path d="m248.48 392.99 0.0762-2.7049-1.8052-0.27834-0.0752 2.7027z" fill="#9c9c9c"/>
  <path d="m254.43 388.1 5.3798 3.6877 1.2009 0.46035-4.1949-2.8723z" fill="#1d1d1d"/>
  <path d="m414.57 401.74-1.5865 1.3486 2.0305 0.30174z" fill="#5e5e5e"/>
  <path d="m414.84 406.2 0.17623-2.8083-2.0305-0.30174-0.17481 2.806z" fill="#a3a3a3"/>
  <path d="m373.19 403.64 13.639-1.6372 0.15791-2.7755-13.646 1.6243z" fill="#8a8a8a"/>
  <path d="m388.61 397.91-18.416 2.1844 3.1476 0.76481 13.646-1.6243z" fill="#707070"/>
  <path d="m253.93 392.44-5.3229-3.7025-0.0521 1.5476 4.1324 2.8888z" fill="#575757"/>
  <path d="m399.05 403.62-10.441-5.7185 0.3619 1.6196 8.8379 4.8619z" fill="#5f5f5f"/>
  <path d="m248.48 392.99 4.1293 2.9116 0.0793-2.7277-4.1324-2.8888z" fill="#505050"/>
  <path d="m388.81 402.3 8.8304 4.9002 0.16665-2.8161-8.8379-4.8619z" fill="#636363"/>
  <path d="m414.57 401.74-15.52 1.8803 0.78384 1.067 13.15-1.5988z" fill="#6e6e6e"/>
  <path d="m399.66 407.51 13.143-1.6113 0.17481-2.806-13.15 1.5988z" fill="#888"/>
  <path d="m372.91 401.44-0.15081 2.793 0.42666-0.5893 0.15081-2.7883z" fill="#2a2a2a"/>
  <path d="m370.19 400.09 2.721 1.3495 0.42666-0.58469z" fill="#454545"/>
  <path d="m425.95 407.79-11.382-6.0447 0.44405 1.6503 9.7122 5.1798z" fill="#616161"/>
  <path d="m414.84 406.2 9.7038 5.2205 0.18462-2.849-9.7122-5.1798z" fill="#676767"/>
  <path d="m252.06 393.73 1.8486-0.31403 0.0196-0.97756-1.2426 0.73385z" fill="#343434"/>
  <path d="m399.66 407.51 0.16806-2.8185-2.0246-0.30411-0.16665 2.8161z" fill="#a2a2a2"/>
  <path d="m326.54 387.05 46.762 27.877 1.3044-0.78064-48.227-28.62z" fill="#727272"/>
  <path d="m248.61 388.74-67.398 7.3946 3.046 0.75418 62.494-6.8795z" fill="#757575"/>
  <path d="m184.21 399.64 62.46-6.9339 0.0752-2.7027-62.494 6.8795z" fill="#979797"/>
  <path d="m370.19 400.09 10.187 5.7959 1.185 0.47265-8.651-4.9191z" fill="#171717"/>
  <path d="m425.96 407.79-5e-3 5.9e-4 0.56448 1.083 2.3715-0.3229z" fill="#404040"/>
  <path d="m424.38 409.19 2.134-0.31474-0.56448-1.083-1.2262 0.78538z" fill="#3f3f3f"/>
  <path d="m381.14 406.96-0.15814 2.8363 0.41898-0.60915 0.15802-2.8316z" fill="#282828"/>
  <path d="m380.38 405.89-13.446 1.6291 0.75323 1.0843 13.459-1.6364z" fill="#707070"/>
  <path d="m183.5 397.46-0.0408 2.7615 0.7524-0.57523 0.0411-2.757z" fill="#464646"/>
  <path d="m183.5 397.46 0.75275-0.57074-3.046-0.75418z" fill="#4c4c4c"/>
  <path d="m367.69 408.6-0.75323-1.0843-1.6827 0.75961 1.989 0.93713z" fill="#545454"/>
  <path d="m175.09 396.8-2.0562 1.3182 1.7853 0.29276z" fill="#5d5d5d"/>
  <path d="m173.04 398.12-0.0349 2.7667 1.7842 0.29512 0.0359-2.7691z" fill="#989898"/>
  <path d="m183.46 400.22 3.6216 3.0445 1.271 0.46531-3.6313-3.0471z" fill="#242424"/>
  <path d="m187.13 400.48-3.624-3.0207-2.2932-1.3249 4.6442 3.8781z" fill="#232323"/>
  <path d="m179.67 400.7-4.5807-3.8941-0.27089 1.6109 3.5541 3.0384z" fill="#545454"/>
  <path d="m174.79 401.18 3.5517 3.0624 0.0383-2.7931-3.5541-3.0384z" fill="#454545"/>
  <path d="m367.09 412.07 9.1191 5.4064 1.215 0.47678-9.1328-5.4106z" fill="#191919"/>
  <path d="m188.19 400.75 0.74377 0.0273-1.8109-0.2969-1.273-0.46756z" fill="#0c0c0c"/>
  <path d="m365.25 408.27 9.8821 5.8121 1.2339 0.48931-9.127-5.3643z" fill="#191919"/>
  <path d="m178.38 401.45-0.77368 0.58681 1.8193-0.31356 0.25186-1.0285z" fill="#313131"/>
  <path d="m175.09 396.8-70.906 7.7794 3.0986 0.77687 65.751-7.2381z" fill="#797979"/>
  <path d="m107.29 408.18 65.713-7.2951 0.0349-2.7667-65.751 7.2381z" fill="#9a9a9a"/>
  <path d="m375.13 414.09-0.52996 0.0606 0.33637 1.1067 3.0808-0.3541z" fill="#4d4d4d"/>
  <path d="m374.6 414.15-1.3044 0.78064-0.45019 0.63646 2.0909-0.31037z" fill="#4d4d4d"/>
  <path d="m107.27 405.36-0.88643 0.59095v0.9603l0.92336 0.99723-0.0369-2.5485z" fill="#515151"/>
  <path d="m107.29 405.36-3.0986-0.77687 2.1878 1.3776z" fill="#4f4f4f"/>
  <path d="m89.889 406.15-2.2958 1.376 1.758 0.30978z" fill="#5d5d5d"/>
  <path d="m87.593 407.53 0.0144 2.8407 1.7569 0.31226-0.0134-2.8432z" fill="#919191"/>
  <path d="m109.36 409.14-2.9867-3.1808-2.1878-1.3776 3.8231 4.0836z" fill="#2a2a2a"/>
  <path d="m89.889 406.15-20.931 2.2966 3.1221 0.78715 15.513-1.7077z" fill="#7a7a7a"/>
  <path d="m72.104 412.09 15.504-1.7212-0.0144-2.8407-15.513 1.7077z" fill="#9e9e9e"/>
  <path d="m60.804 407.56-1.2622 0.26227-1.0038 0.60962 2.4763 0.6257z" fill="#999"/>
  <path d="m72.071 409.24-0.9603 0.59095 0.99723 1.2188-0.0369-1.8098z" fill="#565656"/>
  <path d="m93.554 410.27-3.6654-4.1224-0.53789 1.6858 2.8408 3.2169z" fill="#4f4f4f"/>
  <path d="m68.958 408.45 2.1369 1.402 0.98523-0.61482z" fill="#515151"/>
  <path d="m89.356 407.84v2.844l0.84949 0.99724 1.9945-0.25855v-0.36934l-2.844-3.2133z" fill="#373737"/>
  <path d="m109.36 409.14-1.3514-0.47488 2.2229 0.77662 0.91503 0.0106z" fill="#111"/>
  <path d="m68.958 408.45 2.2585 2.7506 2.5609 1.9069-2.6826-3.2556z" fill="#2d2d2d"/>
  <path d="m93.567 410.27-1.3666 0.77562-0.70175 0.48015 1.5143-0.18467 0.55402-1.0711z" fill="#2d2d2d"/>
  <path d="m75.551 413.42-1.7742-0.32018-2.5609-1.9069 2.5041 2.3168z" fill="#212121"/>
  <path d="m95.26 461.17 405.9-51.938 0.99966-0.1585-406.43 52.002z" fill="#0e0e0e"/>
  <path d="m95.726 461.08 406.43-52.002 0.54864-6.7853-407.01 51.04z" fill="url(#am)"/>
  <path d="m58.614 415.34 35.113 45.332-0.0297-7.7393-35.16-44.495z" fill="#343434"/>
  <path d="m58.538 408.44 35.16 44.495 1.1232-1.402-33.807-42.467z" fill="#ccc"/>
  <path d="m104.41 448.88 0.57676-0.0163-1.9841-0.39038-1.2949-0.23721z" fill="#131313"/>
  <path d="m93.698 452.93 0.0297 7.7393 1.9986 0.40657-0.0265-7.7467z" fill="#999"/>
  <path d="m94.821 451.53-1.1232 1.402 2.0018 0.39925 3.0518-1.7308z" fill="#ccc"/>
  <path d="m15.081 50.828-4.4321 0.40628-1.5512 1.6251 4.9492 249.38 4.2844 4.4321 1.5512 1.4035 146.7-11.117-0.40628 35.863 0.81256-0.44321-0.77562 0.48015-0.14774 0.0739-16.731 1.4774-26.667 2.4007-1.3666 1.4404v5.2447l1.2927 1.2188 35.79 29.621 136.47-13.85 1.3666-1.5512 0.2216-5.5402-3.3241-2.4746-3.5088-1.9575-12.262-6.8329-29.289-16.362-25.042 2.1791-7.5716 0.66482 0.73869-35.42 163.4-12.41 1.2927-1.4404 12.188-224.6-1.1819-1.4774-376.81-2.4377z"/>
  <path d="m248.06 325.77-32.613 2.844-0.0637 3.6295 1.6519 1.4674-1.2927 0.62788-42.955 3.8781-2.7332-0.25854-3.8412-5.097-43.546 3.952 34.238 27.479 2.5854 1.1819 134.77-13.296-1.145-1.2558z" fill="#111"/>
  <path d="m296.24 358.92-0.60159 0.54509-0.77225 1.0099z" fill="#060606"/>
  <path d="m295.85 353.91-0.2092 5.5555 0.60159-0.54509 0.20955-5.5456z" fill="#202020"/>
  <path d="m293.13 350.94 1.1324 1.2384 1.5891 1.7387 0.60194-0.53517z" fill="#171717"/>
  <path d="m122.61 344.73 35.782 29.612-1.4372-1.3387-35.668-29.503z" fill="#030303"/>
  <path d="m121.29 343.5 35.668 29.503 0.0535-5.8004-35.711-28.967z" fill="#222"/>
  <path d="m158.4 374.34 136.47-13.862 0.77225-1.0099-136.68 13.839z"/>
  <path d="m158.96 373.31 136.68-13.839 0.2092-5.5555-136.83 13.588z"/>
  <path d="m159.01 367.5 136.83-13.588-1.5891-1.7387-134.77 13.294z" fill="#1a1a1a" filter="url(#ac)"/>
  <path d="m158.96 373.31-2.0004-0.30529 1.4372 1.3387z"/>
  <path d="m134.44 346.26 22.47 18.053 2.5804 1.1618 134.85-13.204-1.1786-1.3025z" fill="url(#aq)" filter="url(#ag)" opacity=".5"/>
  <path d="m89.615 407.98-13.223 1.4404-0.88643 3.9151 15.476-1.7729-1.3666-3.5826zm1.8467 4.9123-14.663 1.6251-1.4774-0.36935-0.22161 0.9603 16.51-1.8467-0.14774-0.36935z" fill="#6e6e6e"/>
  <path d="m429.26 367.5-6.9067 0.59095-361.55 39.483 0.22161 1.4774 33.795 42.475 3.9151 0.0739 403.07-50.379-72.539-33.721zm5.097 5.9834 58.098 27.332-63.564 7.7193-2.3638 0.33241-48.495 6.0203-1.2927 0.14774-1.6251-0.96029-1.2188-0.70176-8.6427-5.097 1.6621-0.77562 13.444-1.6251-10.157-5.7987 18.393-2.1791 10.452 5.7248 15.512-1.8837 11.376 6.0573-51.376-27.553 9.1228-1.108 50.674-5.651zm-68.513 2.4007 8.8643 4.6907 20.757 11.006-46.464 5.4294-3.1394-0.14774-19.354-11.376 0.8495-0.11074 44.358-4.9492-0.11075-0.0739-0.88642 0.14774-43.287 4.7276h-0.11074l-2.5854 0.29548-62.493 6.9437-2.4377-0.70176-5.3924-3.6565 64.155-7.0545 5.9834 3.5457 0.36935-0.0739-6.0203-3.5088 46.944-5.1339zm-39.483 9.6399 47.128 27.959 1.108 0.66482 1.6251 0.9603-1.2927 0.14774-270.51 33.61-2.7332-0.62789-25.891-31.801v-1.2558l0.99723-0.66482 247.9-27.738 1.6621-1.2558zm-77.747 3.2133 5.3186 3.6934-0.0369 0.99723-65.706 7.313-2.3269-0.73869-4.6537-3.8781 67.405-7.3869zm-73.537 8.0517 4.5799 3.9151-0.2216 1.0342-69.215 7.6824-2.2161-0.77562-3.8042-4.0628 70.877-7.7932zm-85.208 9.3444 3.6934 4.1367-0.55402 1.0711-19.28 2.1791-2.5116-2.3269-2.253-2.7332 20.905-2.3269z" fill="url(#an)"/>
  <path d="m76.799 414.52-0.99723 0.66482v1.2558l0.88643 1.0711 0.14773-0.0739-0.0369-2.9178z" fill="#565656"/>
  <path d="m326.53 387.06-0.125 2.6562 43.5 26.156 3.375-0.40625 0.0312-0.53125-46.781-27.875z" fill="#5d5d5d"/>
  <path d="m95.7 453.33 407.01-51.04-0.90286-1.0564-403.05 50.366z" fill="#ececec"/>
  <path d="m250.35 390.26-11.819 1.2927-0.81256 3.6934 13.887-1.5512-1.2558-3.4349zm-16.03 1.7729-11.967 1.2927-0.81256 3.6934 9.9723-1.108 4.0628-0.44322-1.2558-3.4349zm-16.214 1.7728-12.115 1.3296-0.81256 3.7304 10.711-1.1819 3.4718-0.40628-1.2558-3.4718zm-16.399 1.8098-12.262 1.3666-0.81256 3.7304 5.9095-0.66482 8.421-0.9603-1.2558-3.4718zm-25.743 2.844-12.484 1.3666-0.84949 3.7673 14.626-1.5882-1.2927-3.5457zm-16.879 1.8467-12.632 1.4035-0.84949 3.8042 14.811-1.662-1.3296-3.5457zm-17.064 1.8837-12.779 1.4035-0.84949 3.8042 14.958-1.662-1.3296-3.5457zm35.679 1.0342-15.365 1.7359-0.0739 0.36935 15.586-1.7359-0.14773-0.36935zm-52.964 0.88643-12.89 1.4035-0.88642 3.8412 15.106-1.699-1.3296-3.5457zm36.122 0.99723-15.549 1.7359-0.0739 0.40628 15.771-1.7729-0.14773-0.36934zm-17.064 1.9206-15.734 1.7729-0.0739 0.36934 15.956-1.7728-0.14774-0.36935zm-17.248 1.9206-15.919 1.7729-0.0739 0.40628 16.14-1.8098-0.14774-0.36935z" fill="#6b6b6b"/>
  <path d="m76.828 417.43 247.74-27.976 0.11748-2.6771-247.88 27.758z" fill="#979797"/>
  <path d="m371.72 380.44-45.215 5.0458 2.9936 0.72604 42.92-4.8058z" fill="#6f6f6f"/>
  <path d="m415.14 371.45 2.2403 1.1048 3.2067-0.36198-2.2698-1.0962z" fill="#2a2a2a"/>
  <path d="m400.68 373.07 2.1995 1.1166 3.241-0.36584-2.2298-1.1079z" fill="#2b2b2b"/>
  <path d="m386.07 374.7 2.1577 1.1286 3.2759-0.36978-2.1887-1.1197z" fill="#2b2b2b"/>
  <path d="m415.41 371.49 2.0162 0.99436 2.886-0.32578-2.0428-0.98661z" fill="#ccc"/>
  <path d="m400.95 373.1 1.9796 1.005 2.9169-0.32925-2.0068-0.99711z" fill="#ccc"/>
  <path d="m386.34 374.74 1.9419 1.0157 2.9483-0.33281-1.9699-1.0078z" fill="#ccc"/>
  <path d="m353.47 375.93-2.1422 4.4691 3.398 1.8467 2.5485-0.25854 0.73869-3.6196zm-14.774 1.5882-2.1053 4.506 3.2502 1.8467 2.5854-0.25854 0.70176-3.5826zm-14.922 1.662-1.662 3.5088 3.4718 2.0314 1.8098 0.48015 0.73869-3.5088zm-18.135 1.9575-1.4774 3.1764 1.699-0.18467 1.1819 3.361 2.0683-0.22161 0.73869-3.5826zm-15.291 1.699-1.4774 3.1764 1.5512-0.18467 1.2188 3.398 2.0683-0.25854 0.73869-3.5826zm-15.439 1.662-1.4774 3.2133 1.4035-0.14773 1.2188 3.361 2.1053-0.2216 0.73869-3.5826zm-15.623 1.699-1.8098 4.0259 2.3269 1.5512 2.4377 0.70176h0.14774l0.77562-3.6565zm-24.488 2.6962-1.4404 3.2502 0.96029-0.11074 1.2558 3.4349 2.1422-0.22161 0.81256-3.6934zm-16.066 1.7359-1.4035 3.2502 0.77563-0.0739 1.2558 3.4718 2.1791-0.22161 0.81256-3.7304zm-16.251 1.7728-1.4404 3.2872 0.66482-0.0739 1.2558 3.4718h0.0369l2.1791-0.22161 0.81262-3.7304zm-16.399 1.8098-1.9206 4.3952 1.699 1.4035 2.3269 0.73869 0.44321-0.0369 0.81256-3.7304zm-25.78 2.807-1.3666 3.2872h0.14774l1.2188 3.2872 0.29548 0.25854 2.0314-0.25854 0.84949-3.7673zm-16.879 1.8467-1.4035 3.3241 1.145 3.1394 0.44322 0.40628 1.9945-0.22161 0.84949-3.8042zm-17.101 1.8837-1.4774 3.6196 0.96029 2.5854 0.66482 0.66482 1.9206-0.2216 0.84949-3.8042zm-17.248 1.8837-1.9575 4.8015 1.2558 1.3296 1.8467 0.66482 0.73869-0.0739 0.88642-3.8412zm-35.199 3.8412-1.7729 4.5799 1.662 2.0683 1.7359 0.22161 0.88643-3.9151z" fill="#333"/>
  <path d="m368.91 377.18-10.896 1.1819-0.73869 3.6196 12.853-1.4035-1.2188-3.398zm-14.737 1.6251-11.043 1.2188-0.70176 3.5826 12.927-1.4404-1.1819-3.361zm-14.922 1.6251-11.117 1.2558-0.73869 3.5457 13.075-1.4404-1.2188-3.361zm-18.356 2.0314-11.043 1.2188-0.73869 3.5826 13.186-1.4774-1.108-3.1764-0.29548-0.14774zm-15.032 1.662-11.413 1.2558-0.73869 3.5826 13.333-1.4774-1.1819-3.361zm-15.439 1.699-11.524 1.2927-0.73869 3.5826 13.481-1.4774-1.2188-3.398zm-15.586 1.7359-11.671 1.2558-0.77562 3.6565 13.666-1.5512-1.2188-3.361z" fill="#656565"/>
  <path d="m430.01 382.62 0.67192-5.2696-7.6004-3.6442-2.5435 4.2892z" fill="#333"/>
  <path d="m443.23 381.11-1.9764-4.9453-10.576 1.1938-0.67192 5.2696z" fill="#606060"/>
  <path d="m415.56 384.28 0.69035-5.2994-7.4676-3.6828-2.5288 4.3086z" fill="#333"/>
  <path d="m428.92 382.75-1.9861-4.9717-10.689 1.2066-0.69035 5.2994z" fill="#616161"/>
  <path d="m400.95 385.96 0.70938-5.3294-7.3317-3.722-2.5137 4.3281z" fill="#333"/>
  <path d="m451.5 393.12 0.67853-5.4591-18.779-9.0039-2.6122 4.3502z" fill="#333"/>
  <path d="m414.46 384.41-1.9958-4.9982-10.803 1.2195-0.70938 5.3294z" fill="#616161"/>
  <path d="m425.94 389.5 0.69082-5.3931-7.7166-3.8056-2.5904 4.3694z" fill="#333"/>
  <path d="m439.48 387.91-2.0195-5.0544-10.825 1.247-0.69082 5.3931z" fill="#606060"/>
  <path d="m465.06 391.5-2.044-5.1118-10.844 1.2755-0.67853 5.4591z" fill="#5f5f5f"/>
  <path d="m411.15 391.23 0.71044-5.4242-7.5776-3.8469-2.575 4.3894z" fill="#333"/>
  <path d="m424.84 389.63-2.0296-5.0818-10.943 1.2606-0.71044 5.4242z" fill="#616161"/>
  <path d="m436.68 394.89 0.69094-5.4902-7.9783-3.9347-2.6548 4.4318z" fill="#333"/>
  <path d="m450.39 393.25-2.0543-5.1399-10.964 1.2894-0.69094 5.4902z" fill="#606060"/>
  <path d="m368.22 389.72 0.75263-5.3969-7.0203-3.8108-2.4787 4.3719z" fill="#333"/>
  <path d="m382.05 388.13-2.0176-5.0578-11.062 1.2488-0.75263 5.3969z" fill="#646464"/>
  <path d="m421.7 396.68 0.71103-5.5224-7.836-3.978-2.6391 4.4525z" fill="#333"/>
  <path d="m435.56 395.03-2.0646-5.1683-11.085 1.3038-0.71103 5.5224z" fill="#616161"/>
  <path d="m353.1 391.45 0.77273-5.4282-6.8732-3.8522-2.4621 4.3921z" fill="#333"/>
  <path d="m447.79 400.47 0.69071-5.5908-8.2537-4.0705-2.722 4.496z" fill="#333"/>
  <path d="m367.08 389.85-2.0276-5.0854-11.183 1.2624-0.77273 5.4282z" fill="#646464"/>
  <path d="m378.19 393.6 0.54693-3.9808-7.2585-3.9401-2.5394 4.4344 6.844 3.7678z" fill="#333"/>
  <path d="m391.44 392.06-1.4904-3.7241-11.209 1.2912-0.54693 3.9808z" fill="#636363"/>
  <path d="m337.99 392.02 0.62109-4.2746-6.7228-3.894-1.9192 3.4544z" fill="#333"/>
  <path d="m432.61 402.33 0.71127-5.6242-8.1079-4.1161-2.7061 4.5172z" fill="#333"/>
  <path d="m351.95 391.58-2.0377-5.1131-11.305 1.2761-0.62109 4.2746z" fill="#656565"/>
  <path d="m446.65 400.61-2.101-5.2577-11.231 1.3491-0.71127 5.6242z" fill="#606060"/>
  <path d="m362.88 395.39 0.56243-4.0078-7.1078-3.9836-2.5224 4.4551 6.2009 3.8714z" fill="#333"/>
  <path d="m376.27 393.83-1.4994-3.7481-11.333 1.3055-0.56243 4.0078z" fill="#646464"/>
  <path d="m347.43 396.94 0.54073-3.7725-6.9535-4.0278-1.9597 3.5083 7.2095 4.2373z" fill="#333"/>
  <path d="m360.95 395.62-1.523-3.7708-11.459 1.3202-0.54073 3.7725 1.5757 0.0741z" fill="#656565"/>
  <path d="m333.45 393.71-2.3666-5.1114-27.253 3.0764-1.2294 5.5765z" fill="#666"/>
  <path d="m302.6 397.25 1.2294-5.5765-6.372-3.9907-2.7882 4.5016z" fill="#333"/>
  <path d="m286.22 399.13 0.86421-5.5666-6.1996-4.0375-2.3847 4.4805z" fill="#333"/>
  <path d="m319.78 401.94 0.79743-5.613-6.6748-4.1065-2.4362 4.5086z" fill="#333"/>
  <path d="m300.88 397.45-2.0719-5.207-11.723 1.3233-0.86421 5.5666z" fill="#676767"/>
  <path d="m382.97 407.17 0.61205-4.4979-7.6145-4.2675-2.0368 3.6111z" fill="#4a4a4a"/>
  <path d="m324.59 401.37 0.44155-5.5625-4.4571 0.51341-0.79743 5.613z" fill="#666"/>
  <path d="m397.37 406.63-2.1362-5.3541-11.646 1.399-0.7803 5.7344z" fill="#636363"/>
  <path d="m270.2 400.97 0.88666-5.5999-6.0323-4.0826-2.3653 4.5018z" fill="#333"/>
  <path d="m303.69 403.82 0.85723-5.6513-6.5086-4.1531-2.454 4.5344z" fill="#333"/>
  <path d="m285.02 399.27-2.0825-5.2362-11.855 1.3382-0.88666 5.5999z" fill="#686868"/>
  <path d="m333.96 407.18 0.44014-5.6658-9.3629-5.7033-0.44155 5.5625z" fill="#454545"/>
  <path d="m318.46 402.09-2.1026-5.2814-11.817 1.3613-0.85723 5.6513z" fill="#676767"/>
  <path d="m352.36 404.98-2.4484-5.2895-15.514 1.8247-0.44014 5.6658z" fill="#656565"/>
  <path d="m253.99 402.83 0.90947-5.6333-5.8609-4.1285-2.3452 4.5229z" fill="#333"/>
  <path d="m287.53 405.71 0.88016-5.6855-6.3391-4.2-2.4344 4.5559z" fill="#333"/>
  <path d="m268.99 401.11-2.0932-5.2657-11.988 1.3534-0.90947 5.6333z" fill="#696969"/>
  <path d="m302.47 403.96-2.1134-5.3115-11.952 1.3768-0.88016 5.6855z" fill="#676767"/>
  <path d="m318.02 409.09 0.85464-5.7465-6.7949-4.2845-2.5218 4.5943z" fill="#333"/>
  <path d="m237.61 404.71 0.93217-5.6673-5.6854-4.1751-2.324 4.5444z" fill="#333"/>
  <path d="m332.95 407.3-2.1365-5.3649-11.943 1.4047-0.85464 5.7465z" fill="#666"/>
  <path d="m252.77 402.97-2.1032-5.2956-12.118 1.3679-0.93217 5.6673z" fill="#6a6a6a"/>
  <path d="m271.19 407.63 0.90345-5.7202-6.1654-4.2479-2.414 4.5778z" fill="#333"/>
  <path d="m286.3 405.86-2.1244-5.3417-12.089 1.3925-0.90345 5.7202z" fill="#686868"/>
  <path d="m221.04 406.61 0.95664-5.7017-5.5056-4.2226-2.3034 4.5662z" fill="#333"/>
  <path d="m301.68 411.04 0.87804-5.782-6.6221-4.3338-2.5018 4.6165z" fill="#333"/>
  <path d="m316.79 409.23-2.1478-5.3957-12.081 1.4208-0.87804 5.782z" fill="#676767"/>
  <path d="m236.37 404.85-2.1148-5.3257-12.263 1.3842-0.95664 5.7017z" fill="#6a6a6a"/>
  <path d="m254.66 409.57 0.92732-5.7553-5.9872-4.2966-2.3932 4.5997z" fill="#333"/>
  <path d="m362.32 410.91-2.4913-5.3831-40.051 4.8114-1.152 5.91z" fill="#656565"/>
  <path d="m204.27 408.54 0.9811-5.7366-5.3212-4.2708-2.2815 4.588z" fill="#333"/>
  <path d="m269.95 407.77-2.1355-5.3725-12.228 1.4086-0.92732 5.7553z" fill="#696969"/>
  <path d="m285.16 413.02 0.90191-5.8177-6.4449-4.384-2.4813 4.6389z" fill="#333"/>
  <path d="m219.78 406.76-2.1259-5.3563-12.403 1.4002-0.9811 5.7366z" fill="#6b6b6b"/>
  <path d="m318.63 416.25 1.152-5.91-6.9483-4.4658-2.8523 4.708z" fill="#333"/>
  <path d="m300.45 411.19-2.1591-5.4272-12.221 1.4374-0.90191 5.8177z" fill="#676767"/>
  <path d="m237.94 411.52 0.95155-5.7907-5.8044-4.3461-2.3718 4.622z" fill="#333"/>
  <path d="m187.31 410.48 1.0058-5.7719-5.1321-4.3197-2.2591 4.6101z" fill="#333"/>
  <path d="m253.41 409.71-2.1468-5.4035-12.369 1.4249-0.95155 5.7907z" fill="#6a6a6a"/>
  <path d="m268.45 415.01 0.92637-5.854-6.2631-4.435-2.4601 4.6613z" fill="#333"/>
  <path d="m203 408.68-2.137-5.3871-12.546 1.4163-1.0058 5.7719z" fill="#6b6b6b"/>
  <path d="m221.02 413.51 0.97637-5.8267-5.6171-4.3964-2.3497 4.6443z" fill="#333"/>
  <path d="m283.91 413.17-2.1706-5.4588-12.364 1.4542-0.92637 5.854z" fill="#686868"/>
  <path d="m301.9 418.3 0.8973-5.9136-6.7645-4.5194-2.5554 4.6984z" fill="#333"/>
  <path d="m170.15 412.45 1.0311-5.8075-4.9384-4.3697-2.2358 4.6325z" fill="#333"/>
  <path d="m236.67 411.67-2.1582-5.4349-12.513 1.4414-0.97637 5.8267z" fill="#6a6a6a"/>
  <path d="m317.33 416.41-2.194-5.5107-12.342 1.4827-0.8973 5.9136z" fill="#676767"/>
  <path d="m186.02 410.63-2.1485-5.4183-12.692 1.4327-1.0311 5.8075z" fill="#6d6d6d"/>
  <path d="m251.54 417.04 0.9512-5.8907-6.0766-4.487-2.4384 4.6842z" fill="#333"/>
  <path d="m203.91 415.51 1.0016-5.8629-5.4251-4.4477-2.3269 4.667z" fill="#333"/>
  <path d="m152.79 414.45 1.0569-5.8437-4.7397-4.4204-2.2119 4.6549z" fill="#333"/>
  <path d="m267.18 415.17-2.1823-5.4909-12.51 1.4714-0.9512 5.8907z" fill="#696969"/>
  <path d="m285.02 420.36 0.92153-5.9511-6.5796-4.5727-2.5332 4.7214z" fill="#333"/>
  <path d="m219.74 413.66-2.1696-5.4668-12.66 1.4585-1.0016 5.8629z" fill="#6b6b6b"/>
  <path d="m168.85 412.6-2.1598-5.4499-12.84 1.4494-1.0569 5.8437z" fill="#6d6d6d"/>
  <path d="m300.63 418.45-2.2052-5.5435-12.483 1.4995-0.92153 5.9511z" fill="#676767"/>
  <path d="m234.43 419.08 0.97673-5.928-5.8853-4.5397-2.4159 4.7072z" fill="#333"/>
  <path d="m135.23 416.46 1.0833-5.8803-4.5361-4.4722-2.1874 4.6777z" fill="#353535"/>
  <path d="m186.6 417.54 1.0266-5.8998-5.2282-4.4997-2.3027 4.6897z" fill="#333"/>
  <path d="m250.26 417.19-2.194-5.5234-12.657 1.4887-0.97673 5.928z" fill="#6a6a6a"/>
  <path d="m267.94 422.44 0.94777-5.989-6.3898-4.6272-2.5119 4.745z" fill="#333"/>
  <path d="m202.61 415.66-2.1804-5.4989-12.802 1.4748-1.0266 5.8998z" fill="#6b6b6b"/>
  <path d="m151.48 414.6-2.1713-5.4819-12.991 1.4665-1.0833 5.8803z" fill="#6e6e6e"/>
  <path d="m117.46 418.5 1.1103-5.9173-4.3274-4.5247-2.1622 4.7005z" fill="#343434"/>
  <path d="m169.08 419.59 1.0539-5.9372-5.0262-4.5528-2.2794 4.7128z" fill="#333"/>
  <path d="m283.74 420.51-2.2181-5.5766-12.638 1.5183-0.94777 5.989z" fill="#686868"/>
  <path d="m217.12 421.15 1.0026-5.9655-5.689-4.5935-2.3928 4.7303z" fill="#333"/>
  <path d="m133.9 416.62-2.1829-5.5142-13.144 1.4838-1.1103 5.9173z" fill="#6e6e6e"/>
  <path d="m233.13 419.24-2.2058-5.5562-12.808 1.5064-1.0026 5.9655z" fill="#6a6a6a"/>
  <path d="m99.484 420.57 1.1377-5.9549-4.1135-4.5782-2.1361 4.7238z" fill="#323232"/>
  <path d="m185.29 417.69-2.193-5.5314-12.96 1.493-1.0539 5.9372z" fill="#6d6d6d"/>
  <path d="m250.66 424.56 0.97306-6.0275-6.1952-4.6825-2.4884 4.7684z" fill="#333"/>
  <path d="m151.35 421.67 1.0808-5.975-4.8191-4.6068-2.2544 4.7361z" fill="#333"/>
  <path d="m199.6 423.25 1.0292-6.0037-5.4876-4.6482-2.3689 4.7538z" fill="#333"/>
  <path d="m266.64 422.6-2.2294-5.61-12.784 1.5356-0.97306 6.0275z" fill="#696969"/>
  <path d="m116.12 418.66-2.1946-5.5468-13.3 1.5014-1.1377 5.9549z" fill="#6f6f6f"/>
  <path d="m81.29 422.66 1.1658-5.9928-3.8943-4.6327-2.1092 4.7472z" fill="#303030"/>
  <path d="m167.75 419.75-2.2048-5.5644-13.115 1.5108-1.0808 5.975z" fill="#6d6d6d"/>
  <path d="m215.8 421.31-2.218-5.5895-12.961 1.5244-1.0292 6.0037z" fill="#6b6b6b"/>
  <path d="m133.41 423.77 1.1084-6.0132-4.6066-4.6618-2.2288 4.7595z" fill="#353535"/>
  <path d="m233.16 426.69 1.0004-6.0665-5.9952-4.7388-2.4656 4.7923z" fill="#333"/>
  <path d="m98.121 420.72-2.2065-5.58-13.459 1.5193-1.1658 5.9928z" fill="#6f6f6f"/>
  <path d="m181.86 425.37 1.0563-6.0424-5.2811-4.7038-2.3441 4.7775z" fill="#3a3a3a"/>
  <path d="m249.35 424.72-2.2423-5.6438-12.945 1.555-1.0004 6.0665z" fill="#6a6a6a"/>
  <path d="m150.01 421.83-2.2168-5.5976-13.272 1.5289-1.1084 6.0132z" fill="#6e6e6e"/>
  <path d="m115.25 425.9 1.1364-6.0519-4.3886-4.7178-2.2024 4.7834z" fill="#343434"/>
  <path d="m198.27 423.41-2.2299-5.623-13.117 1.5427-1.0563 6.0424z" fill="#6c6c6c"/>
  <path d="m215.46 428.86 1.0267-6.1058-5.79-4.7962-2.4405 4.8163z" fill="#333"/>
  <path d="m163.92 427.52 1.0839-6.0814-5.0691-4.7607-2.3188 4.8014z" fill="#333"/>
  <path d="m132.05 423.93-2.229-5.6314-13.432 1.5474-1.1364 6.0519z" fill="#6e6e6e"/>
  <path d="m231.83 426.86-2.254-5.6782-13.096 1.5732-1.0267 6.1058z" fill="#6b6b6b"/>
  <path d="m180.52 425.53-2.2423-5.6571-13.276 1.5615-1.0839 6.0814z" fill="#6d6d6d"/>
  <path d="m86.71 429.24 1.1812-6.1129-4.0403-4.8064-2.1598 4.8205z" fill="#313131"/>
  <path d="m145.75 429.69 1.1123-6.1211-4.8516-4.8184-2.2925 4.8255z" fill="#363636"/>
  <path d="m197.54 431.05 1.0544-6.1458-5.5794-4.8546-2.4156 4.8405z" fill="#333"/>
  <path d="m179.39 433.26 1.0836-6.1864-5.3631-4.9141-2.3906 4.8652z" fill="#333"/>
  <path d="m196.18 431.21-2.28-5.748-13.426 1.6128-1.0836 6.1864z" fill="#6c6c6c"/>
  <path d="m113.56 426.1-2.1286-5.679-23.536 2.7113-1.1812 6.1129z" fill="#6f6f6f"/>
  <path d="m214.11 429.02-2.2665-5.713-13.256 1.5924-1.0544 6.1458z" fill="#6b6b6b"/>
  <path d="m162.55 427.68-2.2547-5.6916-13.438 1.5806-1.1123 6.1211z" fill="#6d6d6d"/>
  <path d="m127.36 431.89 1.1411-6.1612-4.6283-4.8772-2.2656 4.8498z" fill="#353535"/>
  <path d="m144.37 429.86-2.2671-5.7263-13.603 1.5999-1.1411 6.1612z" fill="#6e6e6e"/>
  <path d="m161.02 435.51 1.1118-6.2272-5.1412-4.9748-2.3632 4.8899z" fill="#333"/>
  <path d="m92.338 436.08 1.1968-6.2377-4.1948-4.9902-2.2129 4.8962z" fill="#323232"/>
  <path d="m178.01 433.43-2.2921-5.7836-13.585 1.6321-1.1118 6.2272z" fill="#6d6d6d"/>
  <path d="m125.54 432.11-2.5087-5.7355-29.501 3.4697-1.1968 6.2377z" fill="#6f6f6f"/>
  <path d="m142.42 437.78 1.1421-6.2689-4.9132-5.0364-2.3365 4.915z" fill="#363636"/>
  <path d="m159.63 435.68-2.3059-5.8196-13.761 1.6532-1.1421 6.2689z" fill="#6d6d6d"/>
  <path d="m123.59 440.08 1.1716-6.3109-4.6792-5.0993-2.3074 4.9401z" fill="#343434"/>
  <path d="m141.01 437.95-2.3182-5.8561-13.927 1.6731-1.1716 6.3109z" fill="#6e6e6e"/>
  <path d="m98.184 443.18 1.2129-6.3677-4.3583-5.1848-2.2684 4.974z" fill="#333"/>
  <path d="m121.95 440.28-1.981-5.9356-20.57 2.4711-1.2129 6.3677z" fill="#6f6f6f"/>
  <path d="m397.84 381.06-10.906 1.2188-0.59375 4.1875 1.8125 0.96875 11.688-1.3438-2-5.0312zm10.156 5.1875l-11.062 1.2812-0.59375 4.3125 1.6875 0.90625 12-1.375-2.0312-5.125zm10.5 5.375-11.219 1.3125-0.59375 4.4688 1.625 0.875 12.25-1.4688-2.0625-5.1875zm10.844 5.5625-11.344 1.3438-0.625 4.625 1.5312 0.84375 12.562-1.5312-2.125-5.2812z" fill="#626262"/>
  <path d="m379.72 378.53-1.9062 3.3125v0.0312l8.5312 4.5938 0.59375-4.1875-7.2188-3.75zm9.7812 5.0938-2 3.4688 8.8438 4.75 0.59375-4.3125l-7.4375-3.9062zm10.094 5.2812-2.0938 3.5625 9.1875 4.9375 0.59375-4.4688-7.6875-4.0312zm10.438 5.4688-2.1875 3.6562 9.5312 5.125 0.625-4.625-7.9688-4.1562z" fill="#333"/>
  <path d="m167.45 333.71 0.20027 29.199 48.305-3.0073-0.22369-25.561-48.281-0.63102" filter="url(#ah)"/>
  <path d="m216.37 284.81-0.70176 0.0369-0.99723 47.867 0.70176-0.48015 0.99723-47.424z" fill="#2b2b2b"/>
  <path d="m171.61 288.06-4.9492 0.36934-0.48015 44.395 4.8384 3.361 0.59095-48.126z" fill="#1a1a1a"/>
  <path d="m215.67 284.84-42.253 3.1025-0.59095 48.495 41.847-3.7304 0.99723-47.867z" filter="url(#ak)"/>
  <path d="m173.42 287.95-1.8098 0.11075-0.59095 48.126 1.8098 0.25854 0.59095-48.495z" filter="url(#aj)"/>
  <path d="m215.39 332.24-0.70642 0.46295 1.0615 1.6448 1.3072-0.62416z" fill="#1a1a1a"/>
  <path d="m164.84 334.25 1.3548-1.4231 0.79258-0.4633-1.7457 1.0961z" fill="#060606"/>
  <path d="m172.8 338.21 42.939-3.8604-1.0615-1.6448-41.84 3.7368z" fill="#0a0a0a"/>
  <path d="m164.84 334.25 5.2325 3.6927 0.94588-1.7424-4.8236-3.3735z" fill="#131313"/>
  <path d="m172.84 336.44-1.8251-0.24288-0.94588 1.7424 2.7328 0.269z" fill="#0e0e0e"/>
  <path d="m380.88 279.35-0.35599-0.67155-3.1791 1.2759 2.2648 0.8362z" fill="#333"/>
  <path d="m370.19 272.65-1.0487-0.36556-1.277 1.4448 1.0466 0.36816z" fill="#414141"/>
  <path d="m372.14 273.43-1.9543-0.77391-1.2792 1.4474 1.5777 1.5687z" fill="#ccc"/>
  <path d="m380.88 279.35 12.188-224.6-0.47016 1.106-12.074 222.82z" fill="#181818"/>
  <path d="m33.791 298.62 335.12-24.516-1.0466-0.36816-334.56 24.422z" fill="#1b1b1b"/>
  <path d="m31.759 296.75 0.48871 0.46 1.5439 1.4059-0.49143-0.46248z"/>
  <path d="m368.91 274.09-335.12 24.531-1.5312-1.4062l-1.1562 1.0938 2 2.25 337.41-24.906-1.5938-1.5625z" fill="#fff"/>
  <path d="m24.179 306.62-4.0024-0.8687-1.8532 0.92921 1.5593 1.4022z" fill="#5b5b5b"/>
  <path d="m9.0976 52.867 4.9549 249.37 4.271 4.4451-4.8348-254.18z" fill="#b3b3b3"/>
  <path d="m29.219 58.5-1.5938 2.0625-0.1875 14.594 2.0938 127.97c117.53-5.1464 233.71-17.699 348.09-40.125l3.7812-103.06z" fill="url(#av)" filter="url(#ab)" opacity=".15"/>
  <path transform="matrix(1.0223 0 0 1.0223 6.3691 -5.7164)" d="m161.1 331.26l-3.5156 0.76367 3.4863 2.4141 1.7715 0.24414 0.03125-3.209-1.7734-0.21289z" filter="url(#ai)"/>
  <path d="m391.9 53.272-2.4924 1.4341 3.1888 1.1557 0.47016-1.106z" fill="#808080"/>
  <path d="m379.92 61.413-349.91-1.2289-0.50716 0.02328 349.31 1.224z" fill="#010101"/>
  <path d="m19.648 52.502 369.76 2.2035 2.4924-1.4341-376.83-2.4442z" fill="#ccc"/>
  <path d="m15.07 50.828-4.4216 0.4022-1.5504 1.6367 4.3911-0.36911z" fill="#808080"/>
  <path d="m15.479 53.77 4.1681-1.2676-4.578-1.6748-1.5809 1.6698z" fill="#f2f2f2"/>
  <path d="m32.247 297.21-3.8044-235.37-1.2369-0.74507 3.8906 237.22z"/>
  <path d="m29.219 58.5-2 2.5938 1.2188 0.75l1.5625-1.6562 349.94 1.2188 1.1562 1.5-10.906 209.75 1.9688 0.78125 11.062-211.19-1.5-2.3125-352.5-1.4375z" fill="url(#ar)"/>
  <path d="m20.177 305.75-4.6972-251.98-1.9908-1.2726 4.8348 254.18z" fill="#ccc"/>
  <path d="m19.656 52.5-4.1875 1.2812 4.7188 251.97 4 0.875 353.16-26.656 3.1875-1.2812 12.062-222.81-3.1875-1.1562l-369.75-2.2188zm9.5625 6 352.5 1.4375 1.5 2.3125-11.062 211.19-1.6562 2.2188-337.41 24.906-2-2.25-3.875-237.22 2-2.5938z" fill="#b3b3b3"/>
  <path d="m379.94 61.406-10.812 210.88 1.0625 0.375 10.906-209.75-1.1562-1.5z" fill="#1a1a1a"/>
  <path d="m105.94 51.406c-29.288 32.637-47.094 75.592-47.094 122.69 0 49.257 51.188 127.16 51.188 127.16l269.56-20.469 1.2812-1.4375 11.875-218.78-6.0625-7.3438z" color="#000000" fill="url(#aw)" fill-rule="evenodd" opacity=".2"/>
  <path d="m455.08 389.04-2.7332 4.506 19.908 9.7138 2.4007-0.29548 0.51709-4.2844z" fill="#333"/>
  <path d="m461.68 398.77-2.0901-5.2284-11.106 1.3342-0.69071 5.5908z" fill="#5f5f5f"/>
  <path transform="matrix(1.0223 0 0 1.0223 6.3691 -5.7164)" d="m435.34 393.28l-2.7188 4.4375 8.1875 4.125 2.4062-0.28125 0.5-4.1562-8.375-4.125zm-29.938 3.625l-2.2188 3.7188-0.46875 0.75 7.8438 4.1875 0.4375-0.03125 1.9375-0.28125 0.53125-4.1562-8.0625-4.1875zm-18.344 2.1875l-2.6562 4.5312 7.6875 4.25 2.3125-0.28125 0.53125-4.2188-7.875-4.2812zm-15.406 1.875l-2.6875 4.5625 7.5 4.3125 2.3125-0.3125 0.59375-4.25-7.7188-4.3125zm-15.625 1.875l-2.1562 3.7812 8.4062 4.9375 0.71875-0.0625 0.59375-4.2812-7.5625-4.375zm-22.062 2.6875l-2.9375 4.625 7.125 4.4062 2.2812-0.28125 0.84375-4.3125-7.3125-4.4375zm-19.594 2.3438l-2.9375 4.6875 6.9062 4.4688 2.2812-0.3125 0.875-4.3125-7.125-4.5312zm-19.875 2.4375l-2.875 4.6875 6.6562 4.5 2.2188-0.28125 0.90625-4.375-6.9062-4.5312zm-20.156 2.4062l-2.875 4.75 6.4688 4.5625 2.1562-0.25 0.90625-4.4062-6.6562-4.6562zm-106.31 12.875l-2.4688 4.8438 5.2188 4.9375 1.75-0.25 0.875-4.5625-5.375-4.9688zm-27.938 3.3438l-2.25 4.875 4.9062 5.0312 1.6562-0.21875 0.71875-4.5938-5.0312-5.0938zm-18.594 2.25l-2.3438 4.9062 4.6562 5.0938 1.6562-0.21875 0.84375-4.625-4.8125-5.1562zm-28.969 3.5l-2.2812 4.9375 3.7812 4.5938 1.875 0.4375 0.1875-0.03125 0.875-4.6562-4.4375-5.2812z" fill="#333"/>
  <path d="m433.55 372.53-10.452 1.1819 7.5716 3.6565 10.6-1.2188-7.7193-3.6196zm-14.183 1.5882-10.6 1.1819 7.4977 3.6934 10.674-1.2188-7.5716-3.6565zm-55.032 0.62788-10.859 1.1819 4.5429 2.4377 10.896-1.1819-4.5799-2.4377zm40.702 0.9603-10.711 1.2188 7.35 3.6934 10.785-1.2188-7.4238-3.6934zm-55.365 0.62789-10.97 1.1819 4.4321 2.5115 11.043-1.2188-4.506-2.4746zm40.886 0.99723-10.822 1.2188 7.2022 3.7304 10.896-1.2188-7.2761-3.7304zm53.444 0.11074-10.6 1.2188 18.763 9.012 10.859-1.2927-19.021-8.9381zm-109.14 0.51708-11.08 1.2188 4.3583 2.5116 11.117-1.2558-4.3952-2.4746zm94.774 1.145-10.711 1.1819 7.7193 3.8042 10.822-1.2188-7.8301-3.7673zm-56.731 0.18467-10.97 1.2188 7.0176 3.8042 11.08-1.2558-7.1284-3.7673zm-56.067 0.62789-11.191 1.2188 4.2105 2.5485 11.265-1.2558-4.2844-2.5115zm98.283 0.81256-10.822 1.2188 7.5716 3.8781 10.933-1.2927-7.6824-3.8042zm-57.064 0.22161-11.043 1.2188 6.8698 3.8412 11.191-1.2558-7.0176-3.8042zm-56.399 0.62788-11.302 1.2558 4.0997 2.5485 11.413-1.2558-4.2105-2.5485zm98.8 0.81256-10.97 1.2558 7.4608 3.8781 11.043-1.2558-7.5346-3.8781zm-57.359 0.22167-11.191 1.2558 6.7221 3.8781 11.302-1.2558-6.8329-3.8781zm-56.768 0.62788-11.413 1.2558 3.9889 2.6224 11.524-1.2927-4.0997-2.5854zm153.94 0.9603-10.859 1.2558 7.9778 3.952 10.933-1.2927-8.0517-3.915zm-57.692 0.22161-11.117 1.2558 7.2761 3.952 11.228-1.2927-7.3869-3.915zm-58.135 0.25854-26.999 2.9917 6.3897 3.9889 27.258-3.0656-6.6482-3.915zm-53.592 0.25854-11.56 1.2558 3.8781 2.6224 11.671-1.2558-3.9889-2.6224zm154.72 0.96029-11.006 1.2927 7.8301 3.9889 11.117-1.3296-7.9409-3.952zm-58.024 0.22161-11.228 1.2927 7.1284 3.9889 11.339-1.3296-7.2392-3.952zm-121 1.4774-11.745 1.2927 3.7304 2.6593 11.819-1.2927-3.8042-2.6593zm164.14 0.0369-11.08 1.2927 7.6824 4.0259 11.191-1.3296-7.7932-3.9889zm55.291 0.14773-10.896 1.2558 20.092 9.6399 11.117-1.3666-20.314-9.5291zm-113.61 0.0739-11.339 1.2927 6.9437 4.0259 11.45-1.3296-7.0545-3.9889zm-59.871 0.36935-11.597 1.2927 6.205 4.0628 11.708-1.3296-6.3158-4.0258zm-61.865 1.108-11.893 1.2927 3.6196 2.6962 11.967-1.2927-3.6934-2.6962zm220.61 0.18473-11.006 1.2927 8.2364 4.0628 11.117-1.3296-8.3472-4.0259zm-174.44 0.48015-11.745 1.2927 6.0203 4.0628 11.856-1.3296-6.1311-4.0259zm56.657 0-19.538 2.2161 6.6482 4.0997 4.4691-0.51709 9.3814 5.7248 15.512-1.8467-16.473-9.6768zm-118.93 1.108-12.041 1.2927 3.5088 2.7332 12.115-1.3296-3.5826-2.6962zm221.83 0.14774-11.154 1.3296 8.1256 4.1367 11.228-1.3666-8.1995-4.0997zm-175.44 0.48015-11.893 1.3296 5.8726 4.1367 12.004-1.3666-5.9834-4.0997zm48.827 0.9603-11.708 1.3296 6.5005 4.1367 11.819-1.3666-6.6113-4.0997zm-111.51 0.18467-12.151 1.3296 3.361 2.7701 12.262-1.3666-3.4718-2.7332zm223.05 0.18467-11.265 1.3296 7.9778 4.1367 11.339-1.3666-8.0517-4.0997zm-176.44 0.48015-12.004 1.3296 5.6879 4.1736 12.115-1.3666-5.7987-4.1367zm49.049 0.9603-11.819 1.3296 6.3158 4.2105 11.967-1.4035-6.4635-4.1367zm168.68 0.48014-11.154 1.3666 8.5688 4.2105 11.228-1.4035-8.6427-4.1736zm-233.98 0.36935-12.115 1.3296 5.5032 4.2105 12.262-1.3666-5.651-4.1736zm-55.919 0.33241-12.373 1.3296 3.1764 2.807 12.484-1.3666-3.2872-2.7701zm105.19 0.62789-11.93 1.3666 6.1681 4.2475 12.078-1.4035-6.3158-4.2105zm169.64 0.51708-26.667 3.2133 8.2364 4.2844 26.925-3.2872-8.4949-4.2105zm-60.019 0.2216-11.524 1.3666 7.6085 4.2475 11.671-1.4035-7.7562-4.2105zm-175.29 0.11075-12.262 1.3666 5.3186 4.2844 12.41-1.4035-5.4663-4.2475zm-56.251 0.33241-12.521 1.3666 3.0286 2.844 12.632-1.4035-3.1394-2.807zm167.94 0.18467-11.819 1.3666 6.796 4.2844 11.93-1.4035-6.9067-4.2475zm-62.198 0.48015-12.078 1.3666 5.9834 4.2844 12.225-1.4035-6.1311-4.2475zm-66.113 0.84949-12.41 1.3666 5.1339 4.3213 12.558-1.4035-5.2816-4.2844zm-56.584 0.33241-12.669 1.4035 2.9178 2.844 12.779-1.4035-3.0286-2.844zm168.9 0.18467-11.967 1.4035 6.6482 4.3213 12.078-1.4035-6.759-4.3213zm-62.567 0.48015-12.262 1.3666 5.8356 4.3583 12.373-1.4404-5.9464-4.2844zm-66.556 0.88643-12.521 1.3666 4.9123 4.3952 12.705-1.4404-5.097-4.3213zm234.87 0-11.56 1.4035 8.0517 4.3583 11.671-1.4035-8.1625-4.3583zm-61.163 0.29548-39.631 4.6907 6.9437 4.4691 40.037-4.8015-7.35-4.3583zm-230.62 0.0369-12.779 1.4035 2.7701 2.8809 12.89-1.4035-2.8809-2.8809zm169.86 0.18467-12.115 1.4035 6.4635 4.3952 12.225-1.4404-6.5743-4.3583zm-62.973 0.48015-12.373 1.4035 5.614 4.3952 12.521-1.4404-5.7618-4.3583zm-66.925 0.88643-12.705 1.4035 4.7276 4.4321 12.853-1.4404-4.8754-4.3952zm236.2 0-11.708 1.4404 7.904 4.3952 11.782-1.4404-7.9778-4.3952zm-122.66 0.51708-12.262 1.4404 6.2789 4.4321 12.373-1.4774-6.3897-4.3952zm-63.343 0.48015-12.521 1.4404 5.4294 4.4321 12.632-1.4404-5.5402-4.4321zm-67.405 0.92336-12.816 1.4035 4.506 4.4691 13.001-1.4404-4.6907-4.4321zm237.56 0-11.819 1.4404 7.7193 4.4691 11.967-1.4774-7.867-4.4321zm-295.18 0.33253-13.112 1.4404 2.5115 2.9548 13.223-1.4404-2.6224-2.9548zm171.78 0.18467-12.373 1.4404 6.0942 4.506 12.521-1.4774-6.2419-4.4691zm-63.712 0.48015-12.669 1.4404 5.2447 4.506 12.779-1.4774-5.3555-4.4691zm113.17 0.73869-12.188 1.4404 6.759 4.506 12.336-1.4774-6.9068-4.4691zm-180.98 0.18467-13.001 1.4404 4.3213 4.5429 13.149-1.5143-4.4691-4.4691zm235.24 0.48015-14.7 1.7729 7.4977 4.5429 14.811-1.8467-7.6085-4.4691zm-120.44 0.0739-12.521 1.4404 5.8726 4.5429 12.669-1.4774-6.0203-4.506zm-64.118 0.48015-12.816 1.4404 5.0231 4.5799 12.964-1.5143-5.1708-4.506zm113.8 0.73869-12.373 1.4404 6.6113 4.5799 12.484-1.5143-6.7221-4.506zm-182.09 0.18467-13.112 1.4404 4.0997 4.5799 13.296-1.4774-4.2844-4.5429zm115.46 0.55402-12.669 1.4774 5.6879 4.5799 12.816-1.5143-5.8356-4.5429zm117.56 0.33241-14.885 1.8098 7.2761 4.6168 15.032-1.8467-7.4238-4.5799zm-182.09 0.14773-12.964 1.4774 4.8384 4.6168 13.112-1.5143-4.9862-4.5799zm114.42 0.73869-12.484 1.4774 6.3897 4.6168 12.632-1.5143-6.5374-4.5799zm-183.12 0.18468-13.296 1.5143 3.8781 4.6168 13.481-1.5143-4.0628-4.6168zm116.09 0.59095-12.816 1.4774 5.5032 4.6537 12.964-1.5143-5.651-4.6168zm-64.931 0.48015-13.112 1.4774 4.6168 4.6907 13.259-1.5512-4.7645-4.6168zm179.54 0.29547-15.106 1.8467 7.0545 4.6537 15.254-1.8467-7.2022-4.6538zm-64.488 0.44322-12.632 1.5143 6.205 4.6537 12.779-1.5143-6.3527-4.6537zm-67.479 0.77562-12.964 1.5143 5.2816 4.6907 13.112-1.5512-5.4294-4.6537zm-65.337 0.51708-13.259 1.4774 4.3952 4.7276 13.444-1.5512-4.5799-4.6538zm115.72 0.73869-12.816 1.5143 6.0203 4.7276 12.927-1.5512-6.1311-4.6907zm61.2 0-15.328 1.8467 6.7959 4.7645 15.512-1.9206-6.9806-4.6907zm-129.12 0.77563-13.112 1.5143 5.06 4.7646 13.259-1.5512-5.2078-4.7276zm-65.965 0.51708-23.232 2.6593 4.0259 4.8015 23.564-2.6962-4.3583-4.7646zm116.57 0.77562-12.964 1.5143 5.7987 4.8015 13.112-1.5882-5.9464-4.7276zm58.209 0.36935-103.71 12.558 5.5032 5.097 104.97-12.89-6.759-4.7645zm-126.57 0.40628-13.259 1.5512 4.8384 4.8015 13.444-1.5882-5.0231-4.7645zm50.822 1.2927-13.112 1.5512 5.614 4.8384 13.223-1.5882-5.7248-4.8015zm-68.809 0.77563-13.407 1.5512 4.6168 4.8754 13.592-1.5882-4.8015-4.8384zm51.08 1.2927-13.259 1.5882 5.3555 4.9123 13.407-1.6251-5.5032-4.8754zm-69.917 0.88643-29.104 3.398 4.1736 4.9862 29.511-3.4718-4.5799-4.9123zm51.967 1.2558-13.444 1.5882 5.1339 4.9862 13.592-1.662-5.2816-4.9123zm-18.172 2.1422-13.592 1.6251 4.9123 5.0231 13.74-1.662-5.06-4.9862zm-18.43 2.1791-13.74 1.6251 4.6907 5.097 13.924-1.662-4.8754-5.06zm-18.467 2.1791-20.314 2.4007 4.3583 5.2078 20.572-2.4746-4.6168-5.1339zm57.729 0.73869-23.49 2.844 5.1339 5.2078 23.823-2.9178-5.4663-5.1339zm-28.587 3.4718-13.924 1.662 4.9123 5.2816 14.109-1.7359-5.097-5.2078zm-19.095 2.2899-24.451 2.9548 4.5429 5.3924 24.783-3.0286-4.8754-5.3186z" fill="#e6e6e6"/>
  <path transform="matrix(1.0223 0 0 1.0223 6.3691 -5.7164)" d="m469.44 394.22-10.875 1.3438-0.5 4.1875 12.969-1.5625zm-14.75 1.8125-10.969 1.375-0.5 4.1562 13.062-1.5938zm-14.875 1.8438-26.344 3.2188-0.53125 4.1562 0.375-0.0312 28.062-3.4062zm-33.438 4.125l-11.438 1.375-0.53125 4.2188 13.531-1.6875zm-15.469 1.875-11.531 1.4062-0.59375 4.25 13.719-1.6875zm-15.625 1.9062-11.688 1.4375l-0.59375 4.2812 0.5625-0.0937 13.312-1.6562zm-19.5 2.375-14.5 1.8125-0.84375 4.3125 17.188-2.125zm-19.594 2.4375-14.688 1.8125-0.875 4.3125 17.406-2.1562zm-19.844 2.4375-14.938 1.8125-0.90625 4.375 17.719-2.1562zm-20.188 2.4688-15.156 1.875l-0.90625 4.4062 17.969-2.2188zm-20.062 2.4688-102.69 12.594-0.875 4.5625l105.22-13.062zm-107.66 13.219-23.312 2.8438-0.71875 4.5938 25.594-3.1875zm-28.344 3.4688-13.781 1.6875-0.84375 4.625 16.344-2.0312zm-18.875 2.3438-24.25 2.9688-0.875 4.6562 26.75-3.3125z" fill="#808080"/>
  <path d="m121.3 338.24 35.711 28.967-0.10082-2.8938-34.237-27.507z" filter="url(#ad)"/>
  <path d="m159.49 365.47-2.5808-1.16 0.10082 2.8938 2.0028 0.29973z" filter="url(#ae)"/>
  <path d="m157.01 367.2-0.0535 5.8004 2.0004 0.30529 0.056-5.806z" filter="url(#af)"/>
  <path d="m455.72 325.74c4.9515 0.28642 9.7396-2.9074 10.785-7.1623 1.0548-4.2923-2.0652-8.1496-7.0614-8.5887-5.0919-0.44745-10.116 2.819-11.125 7.2668-0.99961 4.4077 2.3565 8.1924 7.4013 8.4842" fill="#808080"/>
  <path d="m455.66 324.6c4.2356 0.24499 8.3314-2.487 9.2258-6.1267 0.90228-3.6717-1.7666-6.9713-6.0404-7.3469-4.3557-0.38275-8.6537 2.4114-9.5166 6.2161-0.85506 3.7704 2.0158 7.0079 6.3312 7.2575" fill="#fff"/>
  <path d="m455.9 324.95c4.2356 0.24499 8.3314-2.487 9.2258-6.1267 0.90228-3.6717-1.7666-6.9713-6.0404-7.3469-4.3557-0.38275-8.6537 2.4114-9.5166 6.2161-0.85506 3.7704 2.0158 7.0079 6.3312 7.2575" fill="url(#as)"/>
  <path d="m456.19 323.59c3.3866 0.19588 6.6614-1.9885 7.3765-4.8986 0.72142-2.9357-1.4125-5.5739-4.8296-5.8742-3.4826-0.30603-6.9191 1.928-7.609 4.9701-0.68366 3.0146 1.6118 5.6031 5.0621 5.8027" fill="url(#at)"/>
  <path d="m455.75 335.15c2.2526 0.1303 4.4309-1.3227 4.9066-3.2584 0.47986-1.9527-0.93953-3.7076-3.2125-3.9073-2.3165-0.20356-4.6023 1.2824-5.0612 3.3059-0.45475 2.0052 1.0721 3.727 3.3671 3.8597" fill="#808080"/>
  <path d="m455.72 334.63c1.9269 0.11146 3.7903-1.1314 4.1972-2.7873 0.41048-1.6704-0.80369-3.1715-2.748-3.3423-1.9816-0.17413-3.9369 1.097-4.3294 2.8279-0.38899 1.7153 0.91707 3.1881 2.8803 3.3017" fill="#fff"/>
  <path d="m455.83 334.79c1.9269 0.11145 3.7903-1.1314 4.1971-2.7873 0.41048-1.6704-0.80368-3.1715-2.748-3.3423-1.9816-0.17413-3.9369 1.097-4.3294 2.8279-0.389 1.7153 0.91707 3.1881 2.8803 3.3017" fill="url(#al)"/>
  <path d="m455.96 334.18c1.5407 0.0891 3.0305-0.90465 3.3558-2.2286 0.3282-1.3356-0.64259-2.5358-2.1972-2.6724-1.5844-0.13922-3.1477 0.87713-3.4616 2.2611-0.31102 1.3714 0.73324 2.5491 2.3029 2.6399" fill="url(#au)"/>
 </g>
</svg>
